<svg xmlns="http://www.w3.org/2000/svg" viewBox="0 0 32 32">
  <defs>
    <linearGradient id="bg" x1="0%" y1="0%" x2="100%" y2="100%">
      <stop offset="0%" style="stop-color:#f97316"/>
      <stop offset="100%" style="stop-color:#dc2626"/>
    </linearGradient>
  </defs>
  <rect width="32" height="32" rx="6" fill="url(#bg)"/>
  <path d="M16 6c0 0 2.5 3.5 2.5 6.5c0 1.5-0.5 2.5-1.5 3.5c1-0.5 2-0.5 2.5 0.5c0.5 1 0.5 2-0.5 3c2-1 3.5-3 3.5-5.5c0-4-3-7-6.5-10c0 0-0.5 3.5-2 5c-1 1-2 1.5-2.5 3c-0.5 1.5 0 3 1 4c-1-0.5-1.5-1.5-1.5-2.5c0-1.5 1-3 2-4c-2 2-3 4-3 6.5c0 3.5 2.5 6.5 6 6.5c3.5 0 6-3 6-6.5c0-2-1-4-2.5-5.5c0 0-0.5 1.5-1.5 2c-0.5 0.5-1.5 0.5-2 0c-0.5-0.5-0.5-1.5 0-2c0.5-0.5 1-1 1-2c0-1-0.5-2-1-2.5z" fill="white"/>
</svg>
